<svg width="38" height="43" viewBox="0 0 38 43" fill="none" xmlns="http://www.w3.org/2000/svg">
<path d="M18.8913 42.6447C14.9748 42.6447 13.8805 31.9546 13.5925 26.1184C7.14182 25.7139 0 24.5582 0 21.3223C0 18.0864 7.08423 16.9307 13.5925 16.5263C13.8805 10.6901 14.9172 0 18.8913 0C22.8654 0 23.9021 10.6901 24.19 16.5263C30.6407 16.9307 37.7825 18.0864 37.7825 21.3223C37.7825 24.5582 30.6983 25.7139 24.19 26.1184C23.9021 31.9546 22.8654 42.6447 18.8913 42.6447ZM3.11015 21.3223C4.31965 22.0157 8.06336 23.0558 14.9748 23.4025C15.7235 23.4025 16.2419 24.0382 16.2995 24.7316C16.6451 33.977 18.0849 38.4842 18.8913 39.6399C19.6976 38.4842 21.1375 33.977 21.483 24.7316C21.483 23.9804 22.059 23.4025 22.8078 23.4025C29.7768 23.0558 33.4629 22.0157 34.6724 21.3223C33.4629 20.6289 29.7192 19.5888 22.8078 19.2421C22.059 19.2421 21.5406 18.6065 21.483 17.9131C21.1375 8.6676 19.6976 4.16046 18.8913 3.00478C18.0849 4.16046 16.6451 8.6676 16.2995 17.9131C16.2995 18.6643 15.7235 19.2421 14.9748 19.2421C8.00576 19.5888 4.31965 20.6289 3.11015 21.3223Z" fill="black"/>
</svg>
