<svg width="24" height="28" viewBox="0 0 24 28" fill="none" xmlns="http://www.w3.org/2000/svg">
<path d="M12 27.0885C9.5122 27.0885 8.81707 20.298 8.63415 16.5908C4.53659 16.3338 0 15.5997 0 13.5442C0 11.4887 4.5 10.7546 8.63415 10.4977C8.81707 6.79048 9.47562 0 12 0C14.5244 0 15.1829 6.79048 15.3659 10.4977C19.4634 10.7546 24 11.4887 24 13.5442C24 15.5997 19.5 16.3338 15.3659 16.5908C15.1829 20.298 14.5244 27.0885 12 27.0885ZM1.97561 13.5442C2.74391 13.9847 5.12196 14.6454 9.5122 14.8656C9.98781 14.8656 10.3171 15.2694 10.3537 15.7099C10.5732 21.5827 11.4878 24.4457 12 25.1798C12.5122 24.4457 13.4268 21.5827 13.6463 15.7099C13.6463 15.2327 14.0122 14.8656 14.4878 14.8656C18.9146 14.6454 21.2561 13.9847 22.0244 13.5442C21.2561 13.1038 18.8781 12.4431 14.4878 12.2228C14.0122 12.2228 13.6829 11.8191 13.6463 11.3786C13.4268 5.50578 12.5122 2.64278 12 1.90868C11.4878 2.64278 10.5732 5.50578 10.3537 11.3786C10.3537 11.8558 9.98781 12.2228 9.5122 12.2228C5.08537 12.4431 2.74391 13.1038 1.97561 13.5442Z" fill="black"/>
</svg>
